<svg width="70" height="66" viewBox="0 0 70 66" fill="none" xmlns="http://www.w3.org/2000/svg">
<circle cx="33.1426" cy="34" r="32" fill="#00B8FC" fill-opacity="0.06"/>
<g filter="url(#filter0_d_110_32)">
<path d="M59.5684 17.7129H47.0879L42.8398 34.5586H53.7383C54.1094 34.5586 54.3633 34.7051 54.5 34.998C54.6367 35.2715 54.666 35.584 54.5879 35.9355L54.1777 37.4297C53.9824 38.2695 53.377 38.6895 52.3613 38.6895H41.7559L37.4199 55.6816C37.1855 56.5605 36.5898 57 35.6328 57H33.9043C33.416 57 33.0645 56.8242 32.8496 56.4727C32.6152 56.1016 32.5664 55.6621 32.7031 55.1543L42.2246 17.7129H39.8809C39.2949 17.7129 38.9238 17.625 38.7676 17.4492C38.6309 17.2539 38.6504 16.8145 38.8262 16.1309L39.1777 14.7539C39.334 14.2461 39.5 13.9238 39.6758 13.7871C39.8516 13.6309 40.2227 13.5527 40.7891 13.5527H60.3594C60.9062 13.5527 61.2676 13.6602 61.4434 13.875C61.6387 14.0703 61.6582 14.4609 61.502 15.0469L61.0625 16.5703C60.8672 17.332 60.3691 17.7129 59.5684 17.7129Z" fill="#00B8FC"/>
</g>
<g filter="url(#filter1_d_110_32)">
<path d="M13.9609 17.4492L10.8262 17.8301C10.0645 17.8301 9.75195 17.3711 9.88867 16.4531L10.123 14.7539C10.2402 14.1484 10.582 13.7676 11.1484 13.6113C12.7305 13.2598 15.2793 13.1133 18.7949 13.1719C22.3301 13.2305 25.1523 14.3438 27.2617 16.5117C29.3906 18.6602 30.5332 21.8242 30.6895 26.0039C30.8457 30.1836 30.1621 34.7832 28.6387 39.8027C27.1348 44.8223 25.0059 48.9727 22.252 52.2539C19.5176 55.5352 15.9531 57.1953 11.5586 57.2344C9.39062 57.2344 7.58398 57.127 6.13867 56.9121C4.71289 56.6973 4.21484 55.7305 4.64453 54.0117L13.9609 17.4492ZM18.8828 17.332L9.74219 52.9863C10.1133 53.0254 11.041 53.0449 12.5254 53.0449C15.0449 53.0449 17.3594 51.5996 19.4688 48.709C21.5977 45.7988 23.2285 42.2539 24.3613 38.0742C25.4941 33.8945 26.0898 30.3594 26.1484 27.4688C26.2266 24.5586 25.6895 22.1563 24.5371 20.2617C23.4043 18.3477 21.5195 17.3711 18.8828 17.332Z" fill="white"/>
</g>
<defs>
<filter id="filter0_d_110_32" x="28.498" y="13.5527" width="37.2383" height="51.4473" filterUnits="userSpaceOnUse" color-interpolation-filters="sRGB">
<feFlood flood-opacity="0" result="BackgroundImageFix"/>
<feColorMatrix in="SourceAlpha" type="matrix" values="0 0 0 0 0 0 0 0 0 0 0 0 0 0 0 0 0 0 127 0" result="hardAlpha"/>
<feOffset dy="4"/>
<feGaussianBlur stdDeviation="2"/>
<feComposite in2="hardAlpha" operator="out"/>
<feColorMatrix type="matrix" values="0 0 0 0 0 0 0 0 0 0.721569 0 0 0 0 0.988235 0 0 0 0.25 0"/>
<feBlend mode="normal" in2="BackgroundImageFix" result="effect1_dropShadow_110_32"/>
<feBlend mode="normal" in="SourceGraphic" in2="effect1_dropShadow_110_32" result="shape"/>
</filter>
<filter id="filter1_d_110_32" x="0" y="13.084" width="34.9238" height="52.1504" filterUnits="userSpaceOnUse" color-interpolation-filters="sRGB">
<feFlood flood-opacity="0" result="BackgroundImageFix"/>
<feColorMatrix in="SourceAlpha" type="matrix" values="0 0 0 0 0 0 0 0 0 0 0 0 0 0 0 0 0 0 127 0" result="hardAlpha"/>
<feOffset dy="4"/>
<feGaussianBlur stdDeviation="2"/>
<feComposite in2="hardAlpha" operator="out"/>
<feColorMatrix type="matrix" values="0 0 0 0 1 0 0 0 0 1 0 0 0 0 1 0 0 0 0.25 0"/>
<feBlend mode="normal" in2="BackgroundImageFix" result="effect1_dropShadow_110_32"/>
<feBlend mode="normal" in="SourceGraphic" in2="effect1_dropShadow_110_32" result="shape"/>
</filter>
</defs>
</svg>
