<svg
  xmlns="http://www.w3.org/2000/svg"
  width="247"
  height="309"
  viewBox="0 0 247 309"
  fill="none"
>
<path
    d="M-38 308.971C-34.5173 294.811 -31.1488 280.935 -23.013 268.916C-21.1574 266.175 -17.9031 263.862 -14.7915 262.549C-1.40308 256.782 12.1281 251.272 25.7449 246.018C35.7362 242.164 46.2414 239.509 55.9473 235.055C63.3124 231.686 69.8781 226.49 76.5295 221.722C78.1281 220.58 79.3842 217.982 79.5269 215.955C80.0979 207.875 80.2121 199.767 80.4404 191.659C80.5261 188.147 79.6697 185.035 77.3003 182.18C70.9343 174.586 68.8504 165.393 68.251 155.771C68.1653 154.401 68.0797 153.03 67.9655 151.688C67.9655 151.489 67.7657 151.289 67.5087 150.746C61.8279 151.774 59.744 148.177 58.7734 143.295C58.1169 140.069 57.4032 136.842 56.661 133.616C55.8902 130.304 54.8054 127.021 54.2631 123.652C53.6636 119.998 53.0355 116.229 53.2925 112.546C53.6065 108.064 55.4335 106.722 60.0295 106.322C60.001 105.78 60.0295 105.237 59.9153 104.723C53.5208 83.0538 54.6342 61.3842 60.315 39.8573C63.7691 26.8099 73.3608 18.7016 84.5511 12.1351C85.8072 11.3928 86.7778 10.1366 87.9482 9.22298C88.8332 8.53777 89.7467 7.70982 90.7743 7.45286C93.0866 6.85331 95.5131 6.71056 97.7968 6.08245C99.9949 5.45435 102.307 4.7977 104.191 3.57004C110.3 -0.48409 116.895 -0.741042 123.603 1.08617C128.171 2.31383 132.624 3.22743 137.363 2.71353C138.818 2.54223 140.389 3.57004 141.902 3.59859C143.729 3.65569 145.556 3.22743 146.669 3.08468C149.21 4.16959 151.293 5.34015 153.52 5.96825C158.744 7.48141 161.913 10.7647 162.769 15.6182H178.156C176.928 17.217 176.243 18.1021 175.587 18.93C175.815 19.3583 175.872 19.6723 176.043 19.7294C184.893 22.6416 188.889 29.5222 190.545 38.0301C192.772 49.5073 193.514 61.0701 191.887 72.7757C190.916 79.7705 190.859 86.8795 190.003 93.9029C189.489 98.0426 188.233 102.097 187.291 106.208C192.144 106.922 193.8 108.235 194.114 113.031C194.342 116.486 193.771 120.026 193.171 123.452C192.515 127.364 191.459 131.218 190.517 135.072C189.518 139.155 188.633 143.295 187.291 147.292C186.149 150.718 182.952 150.918 179.526 150.832C179.212 154.001 178.87 157.113 178.613 160.253C177.899 168.961 174.588 176.556 169.278 183.408C168.222 184.778 167.251 186.662 167.251 188.29C167.251 197.854 167.308 207.447 167.936 217.011C168.079 219.067 170.277 221.351 172.075 222.893C183.38 232.628 196.883 237.881 210.842 242.621C227.342 248.217 243.442 255.012 259.742 261.236C266.908 263.976 271.932 269.001 274.501 276.053C278.269 286.445 281.495 297.009 284.949 307.515C285.063 307.915 284.949 308.372 284.949 309H-38V308.971Z"
    fill="#5E5E5E"
    fill-opacity="0.5"
  />
</svg>
